<mxfile host="app.diagrams.net" agent="Mozilla/5.0 (Windows NT 10.0; Win64; x64) AppleWebKit/537.36 (KHTML, like Gecko) Chrome/125.0.0.0 Safari/537.36" version="24.7.17">
  <diagram name="Page-1" id="x4PGwDx3Fm0Msf7cN9lI">
    <mxGraphModel dx="1434" dy="780" grid="1" gridSize="10" guides="1" tooltips="1" connect="1" arrows="1" fold="1" page="1" pageScale="1" pageWidth="850" pageHeight="1100" math="0" shadow="0">
      <root>
        <mxCell id="0" />
        <mxCell id="1" parent="0" />
        <mxCell id="fi6vWQGB6aAxybjwf4I8-3" value="" style="edgeStyle=orthogonalEdgeStyle;rounded=0;orthogonalLoop=1;jettySize=auto;html=1;" edge="1" parent="1" source="fi6vWQGB6aAxybjwf4I8-1" target="fi6vWQGB6aAxybjwf4I8-2">
          <mxGeometry relative="1" as="geometry" />
        </mxCell>
        <mxCell id="fi6vWQGB6aAxybjwf4I8-1" value="Start" style="rounded=1;whiteSpace=wrap;html=1;" vertex="1" parent="1">
          <mxGeometry x="340" y="10" width="120" height="60" as="geometry" />
        </mxCell>
        <mxCell id="fi6vWQGB6aAxybjwf4I8-5" value="" style="edgeStyle=orthogonalEdgeStyle;rounded=0;orthogonalLoop=1;jettySize=auto;html=1;" edge="1" parent="1" source="fi6vWQGB6aAxybjwf4I8-2" target="fi6vWQGB6aAxybjwf4I8-4">
          <mxGeometry relative="1" as="geometry" />
        </mxCell>
        <mxCell id="fi6vWQGB6aAxybjwf4I8-2" value="int point;" style="shape=parallelogram;perimeter=parallelogramPerimeter;whiteSpace=wrap;html=1;fixedSize=1;" vertex="1" parent="1">
          <mxGeometry x="340" y="120" width="120" height="60" as="geometry" />
        </mxCell>
        <mxCell id="fi6vWQGB6aAxybjwf4I8-7" value="True" style="edgeStyle=orthogonalEdgeStyle;rounded=0;orthogonalLoop=1;jettySize=auto;html=1;" edge="1" parent="1" source="fi6vWQGB6aAxybjwf4I8-4" target="fi6vWQGB6aAxybjwf4I8-6">
          <mxGeometry relative="1" as="geometry" />
        </mxCell>
        <mxCell id="fi6vWQGB6aAxybjwf4I8-17" value="False" style="edgeStyle=orthogonalEdgeStyle;rounded=0;orthogonalLoop=1;jettySize=auto;html=1;" edge="1" parent="1" source="fi6vWQGB6aAxybjwf4I8-4" target="fi6vWQGB6aAxybjwf4I8-9">
          <mxGeometry relative="1" as="geometry" />
        </mxCell>
        <mxCell id="fi6vWQGB6aAxybjwf4I8-4" value="point &amp;gt;90" style="rhombus;whiteSpace=wrap;html=1;" vertex="1" parent="1">
          <mxGeometry x="340" y="230" width="120" height="80" as="geometry" />
        </mxCell>
        <mxCell id="fi6vWQGB6aAxybjwf4I8-29" style="edgeStyle=orthogonalEdgeStyle;rounded=0;orthogonalLoop=1;jettySize=auto;html=1;exitX=1;exitY=0.5;exitDx=0;exitDy=0;entryX=0.75;entryY=1;entryDx=0;entryDy=0;" edge="1" parent="1" source="fi6vWQGB6aAxybjwf4I8-6" target="fi6vWQGB6aAxybjwf4I8-28">
          <mxGeometry relative="1" as="geometry" />
        </mxCell>
        <mxCell id="fi6vWQGB6aAxybjwf4I8-6" value="Point is A" style="shape=document;whiteSpace=wrap;html=1;boundedLbl=1;" vertex="1" parent="1">
          <mxGeometry x="540" y="230" width="120" height="80" as="geometry" />
        </mxCell>
        <mxCell id="fi6vWQGB6aAxybjwf4I8-8" value="True" style="edgeStyle=orthogonalEdgeStyle;rounded=0;orthogonalLoop=1;jettySize=auto;html=1;" edge="1" parent="1" source="fi6vWQGB6aAxybjwf4I8-9" target="fi6vWQGB6aAxybjwf4I8-10">
          <mxGeometry relative="1" as="geometry" />
        </mxCell>
        <mxCell id="fi6vWQGB6aAxybjwf4I8-18" value="False" style="edgeStyle=orthogonalEdgeStyle;rounded=0;orthogonalLoop=1;jettySize=auto;html=1;" edge="1" parent="1" source="fi6vWQGB6aAxybjwf4I8-9" target="fi6vWQGB6aAxybjwf4I8-12">
          <mxGeometry relative="1" as="geometry" />
        </mxCell>
        <mxCell id="fi6vWQGB6aAxybjwf4I8-9" value="point &amp;gt;80" style="rhombus;whiteSpace=wrap;html=1;" vertex="1" parent="1">
          <mxGeometry x="340" y="360" width="120" height="80" as="geometry" />
        </mxCell>
        <mxCell id="fi6vWQGB6aAxybjwf4I8-30" style="edgeStyle=orthogonalEdgeStyle;rounded=0;orthogonalLoop=1;jettySize=auto;html=1;exitX=1;exitY=0.5;exitDx=0;exitDy=0;entryX=1;entryY=1;entryDx=0;entryDy=0;" edge="1" parent="1" source="fi6vWQGB6aAxybjwf4I8-10" target="fi6vWQGB6aAxybjwf4I8-28">
          <mxGeometry relative="1" as="geometry" />
        </mxCell>
        <mxCell id="fi6vWQGB6aAxybjwf4I8-10" value="Point is B" style="shape=document;whiteSpace=wrap;html=1;boundedLbl=1;" vertex="1" parent="1">
          <mxGeometry x="540" y="360" width="120" height="80" as="geometry" />
        </mxCell>
        <mxCell id="fi6vWQGB6aAxybjwf4I8-11" value="True" style="edgeStyle=orthogonalEdgeStyle;rounded=0;orthogonalLoop=1;jettySize=auto;html=1;" edge="1" parent="1" source="fi6vWQGB6aAxybjwf4I8-12" target="fi6vWQGB6aAxybjwf4I8-13">
          <mxGeometry relative="1" as="geometry" />
        </mxCell>
        <mxCell id="fi6vWQGB6aAxybjwf4I8-19" value="False" style="edgeStyle=orthogonalEdgeStyle;rounded=0;orthogonalLoop=1;jettySize=auto;html=1;" edge="1" parent="1" source="fi6vWQGB6aAxybjwf4I8-12" target="fi6vWQGB6aAxybjwf4I8-15">
          <mxGeometry relative="1" as="geometry" />
        </mxCell>
        <mxCell id="fi6vWQGB6aAxybjwf4I8-12" value="point &amp;gt;70" style="rhombus;whiteSpace=wrap;html=1;" vertex="1" parent="1">
          <mxGeometry x="340" y="500" width="120" height="80" as="geometry" />
        </mxCell>
        <mxCell id="fi6vWQGB6aAxybjwf4I8-31" style="edgeStyle=orthogonalEdgeStyle;rounded=0;orthogonalLoop=1;jettySize=auto;html=1;exitX=1;exitY=0.5;exitDx=0;exitDy=0;entryX=1;entryY=0.75;entryDx=0;entryDy=0;" edge="1" parent="1" source="fi6vWQGB6aAxybjwf4I8-13" target="fi6vWQGB6aAxybjwf4I8-28">
          <mxGeometry relative="1" as="geometry" />
        </mxCell>
        <mxCell id="fi6vWQGB6aAxybjwf4I8-13" value="Point is C" style="shape=document;whiteSpace=wrap;html=1;boundedLbl=1;" vertex="1" parent="1">
          <mxGeometry x="540" y="500" width="120" height="80" as="geometry" />
        </mxCell>
        <mxCell id="fi6vWQGB6aAxybjwf4I8-14" value="True" style="edgeStyle=orthogonalEdgeStyle;rounded=0;orthogonalLoop=1;jettySize=auto;html=1;" edge="1" parent="1" source="fi6vWQGB6aAxybjwf4I8-15" target="fi6vWQGB6aAxybjwf4I8-16">
          <mxGeometry relative="1" as="geometry" />
        </mxCell>
        <mxCell id="fi6vWQGB6aAxybjwf4I8-23" value="False" style="edgeStyle=orthogonalEdgeStyle;rounded=0;orthogonalLoop=1;jettySize=auto;html=1;" edge="1" parent="1" source="fi6vWQGB6aAxybjwf4I8-15" target="fi6vWQGB6aAxybjwf4I8-21">
          <mxGeometry relative="1" as="geometry" />
        </mxCell>
        <mxCell id="fi6vWQGB6aAxybjwf4I8-15" value="point &amp;gt;60" style="rhombus;whiteSpace=wrap;html=1;" vertex="1" parent="1">
          <mxGeometry x="340" y="650" width="120" height="80" as="geometry" />
        </mxCell>
        <mxCell id="fi6vWQGB6aAxybjwf4I8-33" style="edgeStyle=orthogonalEdgeStyle;rounded=0;orthogonalLoop=1;jettySize=auto;html=1;exitX=1;exitY=0.5;exitDx=0;exitDy=0;entryX=1;entryY=0.5;entryDx=0;entryDy=0;" edge="1" parent="1" source="fi6vWQGB6aAxybjwf4I8-16" target="fi6vWQGB6aAxybjwf4I8-28">
          <mxGeometry relative="1" as="geometry" />
        </mxCell>
        <mxCell id="fi6vWQGB6aAxybjwf4I8-16" value="Point is D" style="shape=document;whiteSpace=wrap;html=1;boundedLbl=1;" vertex="1" parent="1">
          <mxGeometry x="540" y="650" width="120" height="80" as="geometry" />
        </mxCell>
        <mxCell id="fi6vWQGB6aAxybjwf4I8-20" value="True" style="edgeStyle=orthogonalEdgeStyle;rounded=0;orthogonalLoop=1;jettySize=auto;html=1;" edge="1" parent="1" source="fi6vWQGB6aAxybjwf4I8-21" target="fi6vWQGB6aAxybjwf4I8-22">
          <mxGeometry relative="1" as="geometry" />
        </mxCell>
        <mxCell id="fi6vWQGB6aAxybjwf4I8-25" value="False" style="edgeStyle=orthogonalEdgeStyle;rounded=0;orthogonalLoop=1;jettySize=auto;html=1;" edge="1" parent="1" source="fi6vWQGB6aAxybjwf4I8-21" target="fi6vWQGB6aAxybjwf4I8-24">
          <mxGeometry relative="1" as="geometry" />
        </mxCell>
        <mxCell id="fi6vWQGB6aAxybjwf4I8-21" value="point &amp;gt;50" style="rhombus;whiteSpace=wrap;html=1;" vertex="1" parent="1">
          <mxGeometry x="340" y="800" width="120" height="80" as="geometry" />
        </mxCell>
        <mxCell id="fi6vWQGB6aAxybjwf4I8-34" style="edgeStyle=orthogonalEdgeStyle;rounded=0;orthogonalLoop=1;jettySize=auto;html=1;exitX=1;exitY=0.5;exitDx=0;exitDy=0;entryX=1;entryY=0.25;entryDx=0;entryDy=0;" edge="1" parent="1" source="fi6vWQGB6aAxybjwf4I8-22" target="fi6vWQGB6aAxybjwf4I8-28">
          <mxGeometry relative="1" as="geometry" />
        </mxCell>
        <mxCell id="fi6vWQGB6aAxybjwf4I8-22" value="Point is E" style="shape=document;whiteSpace=wrap;html=1;boundedLbl=1;" vertex="1" parent="1">
          <mxGeometry x="540" y="800" width="120" height="80" as="geometry" />
        </mxCell>
        <mxCell id="fi6vWQGB6aAxybjwf4I8-35" style="edgeStyle=orthogonalEdgeStyle;rounded=0;orthogonalLoop=1;jettySize=auto;html=1;exitX=0;exitY=0.5;exitDx=0;exitDy=0;entryX=0;entryY=0.5;entryDx=0;entryDy=0;" edge="1" parent="1" source="fi6vWQGB6aAxybjwf4I8-24" target="fi6vWQGB6aAxybjwf4I8-28">
          <mxGeometry relative="1" as="geometry" />
        </mxCell>
        <mxCell id="fi6vWQGB6aAxybjwf4I8-24" value="You&#39;re failed the exam" style="shape=document;whiteSpace=wrap;html=1;boundedLbl=1;" vertex="1" parent="1">
          <mxGeometry x="130" y="800" width="120" height="80" as="geometry" />
        </mxCell>
        <mxCell id="fi6vWQGB6aAxybjwf4I8-28" value="End" style="rounded=1;whiteSpace=wrap;html=1;" vertex="1" parent="1">
          <mxGeometry x="340" y="970" width="120" height="60" as="geometry" />
        </mxCell>
      </root>
    </mxGraphModel>
  </diagram>
</mxfile>
